<svg width="121" height="60" viewBox="0 0 121 60" fill="none" xmlns="http://www.w3.org/2000/svg">
<path d="M53.8096 25.976C57.9916 26.1968 60.8229 26.3072 62.3034 26.3072C62.6545 26.3072 62.9292 26.2115 63.1276 26.0201C63.3413 25.814 63.4481 25.5417 63.4481 25.2031V23.2158H58.1824C56.5798 23.2158 55.4122 22.8699 54.6796 22.178C53.9622 21.4714 53.6035 20.3452 53.6035 18.7995V18.1371C53.6035 16.5914 53.9622 15.4726 54.6796 14.7807C55.4122 14.0741 56.5798 13.7208 58.1824 13.7208H66.2184V16.8122H59.0982C58.1824 16.8122 57.7245 17.2538 57.7245 18.1371V18.5787C57.7245 19.462 58.1824 19.9036 59.0982 19.9036H63.2192C64.715 19.9036 65.8139 20.2422 66.516 20.9193C67.2181 21.5965 67.5691 22.6564 67.5691 24.099V25.2031C67.5691 26.6458 67.2181 27.7057 66.516 28.3828C65.8139 29.06 64.715 29.3986 63.2192 29.3986C62.4408 29.3986 61.6166 29.3839 60.7466 29.3544L58.6403 29.2661C57.0835 29.1925 55.4732 29.0894 53.8096 28.9569V25.976Z" fill="#1D2027"/>
<path d="M76.1528 20.4556C75.3438 20.4556 74.428 20.6028 73.4054 20.8973V26.1968H76.8396C77.4501 26.1968 77.7554 25.9024 77.7554 25.3135V21.2285C77.7554 21.0077 77.679 20.8236 77.5264 20.6764C77.3738 20.5292 77.183 20.4556 76.9541 20.4556H76.1528ZM73.4054 29.1778V32.9316H69.3989V17.4746H72.9475L73.1765 18.5787C73.8938 18.1224 74.6265 17.7911 75.3743 17.5851C76.1375 17.3642 76.7785 17.2538 77.2975 17.2538H78.3277C79.3656 17.2538 80.1974 17.5556 80.8232 18.1592C81.449 18.7627 81.7619 19.565 81.7619 20.566V25.6447C81.7619 26.7488 81.4337 27.6173 80.7774 28.2503C80.1364 28.8686 79.2435 29.1778 78.0988 29.1778H73.4054Z" fill="#1D2027"/>
<path d="M88.8565 17.9163V29.1778H84.85V20.8973H83.1329V17.9163H88.8565ZM84.85 13.5H88.8565V16.5914H84.85V13.5Z" fill="#1D2027"/>
<path d="M101.913 28.9569C99.0593 29.2514 96.5409 29.3986 94.3583 29.3986C93.3204 29.3986 92.4886 29.0968 91.8628 28.4932C91.237 27.8897 90.9241 27.0874 90.9241 26.0864V21.0077C90.9241 19.9036 91.2447 19.0424 91.8857 18.4241C92.542 17.7911 93.4425 17.4746 94.5872 17.4746H101.913V20.4556H95.8464C95.2359 20.4556 94.9307 20.75 94.9307 21.3389V25.6447C94.9307 25.8656 95.007 26.0496 95.1596 26.1968C95.3122 26.344 95.503 26.4176 95.732 26.4176C97.1056 26.4176 99.1661 26.3072 101.913 26.0864V28.9569Z" fill="#1D2027"/>
<path d="M108.434 20.014C107.823 20.014 107.518 20.3084 107.518 20.8973V22.1117H111.41V20.8973C111.41 20.3084 111.105 20.014 110.494 20.014H108.434ZM114.959 28.9569C112.013 29.2514 109.342 29.3986 106.946 29.3986C105.908 29.3986 105.076 29.0968 104.45 28.4932C103.824 27.8897 103.512 27.0874 103.512 26.0864V20.7868C103.512 19.6828 103.832 18.8216 104.473 18.2033C105.129 17.5703 106.03 17.2538 107.175 17.2538H111.754C112.898 17.2538 113.791 17.5703 114.432 18.2033C115.089 18.8216 115.417 19.6828 115.417 20.7868V24.8719H107.518V25.7552C107.518 25.976 107.594 26.16 107.747 26.3072C107.9 26.4544 108.09 26.528 108.319 26.528C109.83 26.528 112.044 26.4176 114.959 26.1968V28.9569Z" fill="#1D2027"/>
<path d="M54.2903 33.7948H63.906C65.5086 33.7948 66.6686 34.1481 67.386 34.8547C68.1186 35.5466 68.4849 36.6653 68.4849 38.211V40.4192C68.4849 41.9649 68.1186 43.091 67.386 43.7976C66.6686 44.4895 65.5086 44.8354 63.906 44.8354H58.4113V49.7536H54.2903V33.7948ZM64.3639 38.211C64.3639 37.3278 63.906 36.8862 62.9902 36.8862H58.4113V41.7441H62.9902C63.906 41.7441 64.3639 41.3024 64.3639 40.4192V38.211Z" fill="#1D2027"/>
<path d="M77.2984 40.7504C76.3368 40.7504 75.3447 40.9712 74.3221 41.4128V49.2517H70.3156V37.5486H73.8642L74.0931 38.9839C75.4058 37.8798 76.7794 37.3278 78.2141 37.3278H79.2444V40.7504H77.2984Z" fill="#1D2027"/>
<path d="M92.7619 45.9395C92.7619 47.0436 92.4338 47.9121 91.7775 48.5451C91.1364 49.1634 90.2436 49.4725 89.0988 49.4725H83.8331C82.6884 49.4725 81.7879 49.1634 81.1316 48.5451C80.4905 47.9121 80.17 47.0436 80.17 45.9395V40.8608C80.17 39.7567 80.4905 38.8956 81.1316 38.2773C81.7879 37.6443 82.6884 37.3278 83.8331 37.3278H89.0988C90.2436 37.3278 91.1364 37.6443 91.7775 38.2773C92.4338 38.8956 92.7619 39.7567 92.7619 40.8608V45.9395ZM88.7554 41.192C88.7554 40.6032 88.4502 40.3088 87.8396 40.3088H85.0923C84.4818 40.3088 84.1765 40.6032 84.1765 41.192V45.6083C84.1765 46.1971 84.4818 46.4916 85.0923 46.4916H87.8396C88.4502 46.4916 88.7554 46.1971 88.7554 45.6083V41.192Z" fill="#1D2027"/>
<path d="M101.574 40.0277C100.765 40.0277 99.8489 40.1749 98.8263 40.4694V45.267H102.26C102.871 45.267 103.176 44.9726 103.176 44.3838V40.8006C103.176 40.5798 103.1 40.3958 102.947 40.2485C102.795 40.1013 102.604 40.0277 102.375 40.0277H101.574ZM98.8263 48.248V51.5H94.8198V37.0468H98.3684L98.5973 38.1508C99.3147 37.6945 100.047 37.3633 100.795 37.1572C101.558 36.9363 102.199 36.8259 102.718 36.8259H103.749C104.786 36.8259 105.618 37.1277 106.244 37.7313C106.87 38.3348 107.183 39.1371 107.183 40.1381V44.715C107.183 45.8191 106.855 46.6876 106.198 47.3206C105.557 47.9389 104.664 48.248 103.52 48.248H98.8263Z" fill="#1D2027"/>
<path d="M26.4668 22.8039C27.3195 18.4599 31.6003 18.1672 31.6003 18.1672C31.6003 18.1672 28.9333 20.1089 28.7966 22.6558C32.0839 17.9382 36.446 17.7162 37.5297 18.1521C40.0064 19.1483 43.5469 21.6516 41.8086 29.9101C40.418 36.5169 33.1982 45.8079 28.8757 48.0084C31.3874 48.3218 37.6684 41.7125 38.8097 40.2769C33.4117 54.726 16.7269 56.8579 10.8382 53.7785C4.66789 50.552 5.19481 45.0142 5.19481 45.0142C9.12063 48.5673 13.8116 48.246 13.8116 48.246C13.8116 48.246 10.9518 49.3164 8.42487 48.6957C14.8479 52.0763 19.0049 46.6261 21.1222 43.822C26.602 36.5647 25.472 27.872 26.4668 22.8039Z" fill="#FF002E"/>
<path d="M37.1203 15.1846C34.4417 15.1743 31.5773 16.3906 30.48 17C30.3847 15.2894 31.5236 14.0348 32.105 13.6213C28.3224 7.14584 32.105 5 32.105 5L35.2823 7.11047C32.9595 8.42984 32.2781 11.1336 33.4269 13.3946C33.4269 13.3946 32.8455 13.808 32.5198 14.6381C33.4791 14.4738 35.1606 14.4701 37.1203 15.1846Z" fill="#00968D"/>
</svg>
